# xmcd
#
# Track frame offsets:
# 150
# 19287
# 32802
# 55079
# 73901
# 89801
# 113463
# 135373
# 150673
# 168424
#
# Disc length: 2494 seconds
#
#
# Revision: 0
# Processed by: cddbd v1.5.2PL0 Copyright (c) Steve Scherf et al.
# Submitted via: FreeRIP 2.90 
#
DISCID=8109bc0a
DTITLE=Kathy Jo and The Bluzification Band - On A Run
DYEAR=2008
DGENRE=Blues
TTITLE0=Wonderin' Blues
TTITLE1=Livin' And Learnin'
TTITLE2=On A Run
TTITLE3=Reason To Cry
TTITLE4=Party Girl Blues
TTITLE5=Give It Up
TTITLE6=I Don't Wanna Break Your Heart
TTITLE7=I've Got A Man
TTITLE8=I Think About You
TTITLE9=High Street
EXTD=
EXTT0=
EXTT1=
EXTT2=
EXTT3=
EXTT4=
EXTT5=
EXTT6=
EXTT7=
EXTT8=
EXTT9=
PLAYORDER=
